<?xml version="1.0" encoding="UTF-8"?>
<svg width="1600" height="900" viewBox="0 0 1600 900" fill="none" xmlns="http://www.w3.org/2000/svg">
  <defs>
    <radialGradient id="glow1" cx="0" cy="0" r="1" gradientUnits="userSpaceOnUse" gradientTransform="translate(520 260) rotate(90) scale(560 820)">
      <stop stop-color="#1EC8E8" stop-opacity="0.55"/>
      <stop offset="1" stop-color="#1EC8E8" stop-opacity="0"/>
    </radialGradient>
    <radialGradient id="glow2" cx="0" cy="0" r="1" gradientUnits="userSpaceOnUse" gradientTransform="translate(1260 520) rotate(90) scale(560 820)">
      <stop stop-color="#14A5C7" stop-opacity="0.45"/>
      <stop offset="1" stop-color="#14A5C7" stop-opacity="0"/>
    </radialGradient>

    <linearGradient id="fiber" x1="0" y1="0" x2="1600" y2="900" gradientUnits="userSpaceOnUse">
      <stop stop-color="#1EC8E8" stop-opacity="0.0"/>
      <stop offset="0.22" stop-color="#1EC8E8" stop-opacity="0.9"/>
      <stop offset="0.5" stop-color="#7C3AED" stop-opacity="0.55"/>
      <stop offset="0.82" stop-color="#1EC8E8" stop-opacity="0.85"/>
      <stop offset="1" stop-color="#1EC8E8" stop-opacity="0.0"/>
    </linearGradient>

    <linearGradient id="fiberCore" x1="0" y1="0" x2="1600" y2="900" gradientUnits="userSpaceOnUse">
      <stop stop-color="#FFFFFF" stop-opacity="0.0"/>
      <stop offset="0.25" stop-color="#D9F9FF" stop-opacity="0.95"/>
      <stop offset="0.55" stop-color="#FFFFFF" stop-opacity="0.65"/>
      <stop offset="0.85" stop-color="#D9F9FF" stop-opacity="0.8"/>
      <stop offset="1" stop-color="#FFFFFF" stop-opacity="0.0"/>
    </linearGradient>

    <filter id="soft" x="-20%" y="-20%" width="140%" height="140%" color-interpolation-filters="sRGB">
      <feGaussianBlur stdDeviation="1.8"/>
    </filter>

    <filter id="bokeh" x="-50%" y="-50%" width="200%" height="200%" color-interpolation-filters="sRGB">
      <feGaussianBlur stdDeviation="11"/>
    </filter>

    <filter id="grain" x="-20%" y="-20%" width="140%" height="140%" color-interpolation-filters="sRGB">
      <feTurbulence type="fractalNoise" baseFrequency="0.65" numOctaves="2" stitchTiles="stitch" result="noise"/>
      <feColorMatrix in="noise" type="matrix" values="
        1 0 0 0 0
        0 1 0 0 0
        0 0 1 0 0
        0 0 0 0.08 0
      " result="noiseAlpha"/>
      <feComposite in="noiseAlpha" in2="SourceGraphic" operator="over"/>
    </filter>
  </defs>

  <!-- Glows -->
  <rect x="0" y="0" width="1600" height="900" fill="url(#glow1)"/>
  <rect x="0" y="0" width="1600" height="900" fill="url(#glow2)"/>

  <!-- Fiber bundles: soft outer glow + bright core -->
  <g opacity="0.92" filter="url(#soft)">
    <path d="M-120 730 C 200 520, 440 900, 760 640 C 980 460, 1160 520, 1360 350 C 1500 230, 1580 220, 1720 70" stroke="url(#fiber)" stroke-width="5" stroke-linecap="round" opacity="0.35"/>
    <path d="M-120 730 C 200 520, 440 900, 760 640 C 980 460, 1160 520, 1360 350 C 1500 230, 1580 220, 1720 70" stroke="url(#fiberCore)" stroke-width="1.6" stroke-linecap="round" opacity="0.7"/>

    <path d="M-140 560 C 120 380, 540 560, 820 330 C 1010 170, 1110 220, 1300 150 C 1480 85, 1540 130, 1720 40" stroke="url(#fiber)" stroke-width="4" stroke-linecap="round" opacity="0.3"/>
    <path d="M-140 560 C 120 380, 540 560, 820 330 C 1010 170, 1110 220, 1300 150 C 1480 85, 1540 130, 1720 40" stroke="url(#fiberCore)" stroke-width="1.2" stroke-linecap="round" opacity="0.55"/>

    <path d="M-80 820 C 200 650, 420 780, 710 720 C 980 660, 1140 560, 1340 540 C 1490 525, 1600 460, 1720 350" stroke="url(#fiber)" stroke-width="3" stroke-linecap="round" opacity="0.24"/>
    <path d="M-80 820 C 200 650, 420 780, 710 720 C 980 660, 1140 560, 1340 540 C 1490 525, 1600 460, 1720 350" stroke="url(#fiberCore)" stroke-width="1" stroke-linecap="round" opacity="0.35"/>

    <path d="M-180 430 C 80 260, 340 420, 620 260 C 800 155, 1010 170, 1210 230 C 1420 295, 1540 240, 1720 160" stroke="url(#fiber)" stroke-width="3" stroke-linecap="round" opacity="0.22"/>
    <path d="M-180 430 C 80 260, 340 420, 620 260 C 800 155, 1010 170, 1210 230 C 1420 295, 1540 240, 1720 160" stroke="url(#fiberCore)" stroke-width="0.9" stroke-linecap="round" opacity="0.3"/>
  </g>

  <!-- Bokeh / lensy highlights -->
  <g opacity="0.75">
    <circle cx="520" cy="260" r="52" fill="#1EC8E8" opacity="0.10" filter="url(#bokeh)"/>
    <circle cx="700" cy="640" r="42" fill="#1EC8E8" opacity="0.08" filter="url(#bokeh)"/>
    <circle cx="980" cy="190" r="50" fill="#7C3AED" opacity="0.07" filter="url(#bokeh)"/>
    <circle cx="1260" cy="520" r="58" fill="#14A5C7" opacity="0.10" filter="url(#bokeh)"/>
    <circle cx="1420" cy="300" r="38" fill="#1EC8E8" opacity="0.06" filter="url(#bokeh)"/>
  </g>

  <!-- Tiny specular dots along the fibers -->
  <g opacity="0.7">
    <circle cx="210" cy="520" r="1.9" fill="#D9F9FF"/>
    <circle cx="430" cy="860" r="1.6" fill="#D9F9FF" opacity="0.9"/>
    <circle cx="820" cy="330" r="1.9" fill="#D9F9FF"/>
    <circle cx="980" cy="460" r="2.1" fill="#FFFFFF" opacity="0.65"/>
    <circle cx="1210" cy="230" r="1.8" fill="#D9F9FF"/>
    <circle cx="1360" cy="350" r="1.9" fill="#D9F9FF"/>
    <circle cx="1540" cy="130" r="1.6" fill="#D9F9FF" opacity="0.85"/>
  </g>

  <!-- Subtle grain to reduce the “flat SVG” feel -->
  <g opacity="0.45" filter="url(#grain)">
    <rect x="0" y="0" width="1600" height="900" fill="#0B1220" fill-opacity="0.0"/>
  </g>
</svg>
