<?xml version="1.0" encoding="UTF-8"?>
<svg id="Layer_1" data-name="Layer 1" xmlns="http://www.w3.org/2000/svg" viewBox="0 0 468.94 90.43">
  <defs>
    <style>
      .cls-1 {
        fill: #4f96a6;
      }

      .cls-2 {
        fill: #ffffff;
      }

      .cls-3 {
        fill: #2fb6e1;
      }
    </style>
  </defs>
  <g>
    <path class="cls-1" d="M379.23,24.67l2.94.28c-2.71,5.87-8.65,9.95-15.54,9.95-9.45,0-17.11-7.66-17.11-17.11s7.66-17.11,17.11-17.11c8.01,0,14.73,5.5,16.6,12.93l-2.92-.2h0c-1.85-5.78-7.27-9.98-13.67-9.98-7.93,0-14.35,6.43-14.35,14.35s6.43,14.35,14.35,14.35c5.43,0,10.17-3.02,12.6-7.48Z"/>
    <path class="cls-3" d="M400.13,18.78c-.81,0-1.52.48-1.84,1.17l-14.56-1.42-2.75-.27-1.82-.18c0-.1,0-.2,0-.3,0-.4-.02-.79-.06-1.18.62,0,1.23-.02,1.83-.05.94-.05,1.86-.13,2.74-.24,5.66-.68,10.22-2.41,12.57-3.47.36.33.84.52,1.36.52,1.13,0,2.04-.91,2.04-2.04s-.91-2.04-2.04-2.04-2.04.91-2.04,2.04c0,.04,0,.09,0,.13-2.27,1-6.69,2.67-12.1,3.33-.89.11-1.82.19-2.76.24-.61.03-1.23.05-1.86.04-1.24-5.62-6.24-9.82-12.23-9.82-6.92,0-12.53,5.61-12.53,12.53s5.61,12.53,12.53,12.53c5.16,0,9.59-3.11,11.51-7.57.61.12,1.21.26,1.8.41.91.23,1.8.5,2.66.78,5.02,1.67,8.89,4.06,10.84,5.41-.05.17-.08.36-.08.55,0,1.12.91,2.04,2.04,2.04s2.04-.91,2.04-2.04-.91-2.04-2.04-2.04c-.37,0-.72.1-1.01.27-2.01-1.4-6.01-3.9-11.3-5.65-.85-.28-1.73-.54-2.64-.78-.58-.15-1.17-.29-1.78-.41.16-.55.28-1.11.37-1.68l1.82.18,2.74.27,14.61,1.42c.28.8,1.04,1.38,1.93,1.38,1.13,0,2.04-.91,2.04-2.04s-.91-2.04-2.04-2.04ZM367.65,5.98c2.1,0,3.79,1.7,3.79,3.79s-1.7,3.79-3.79,3.79-3.79-1.7-3.79-3.79,1.7-3.79,3.79-3.79ZM370.42,17.79c0,2.09-1.7,3.79-3.79,3.79s-3.79-1.7-3.79-3.79,1.7-3.79,3.79-3.79,3.79,1.7,3.79,3.79ZM360.08,9.17c2.09,0,3.79,1.7,3.79,3.79s-1.7,3.79-3.79,3.79-3.79-1.7-3.79-3.79,1.7-3.79,3.79-3.79ZM359.14,24.85c-2.09,0-3.79-1.7-3.79-3.79s1.7-3.79,3.79-3.79,3.79,1.7,3.79,3.79-1.7,3.79-3.79,3.79ZM365.64,29.59c-2.09,0-3.79-1.7-3.79-3.79s1.7-3.79,3.79-3.79,3.79,1.7,3.79,3.79-1.7,3.79-3.79,3.79ZM373.22,26.46c-2.09,0-3.79-1.7-3.79-3.79s1.7-3.79,3.79-3.79,3.79,1.7,3.79,3.79-1.7,3.79-3.79,3.79ZM374.13,18.45c-2.09,0-3.79-1.7-3.79-3.79s1.7-3.79,3.79-3.79,3.79,1.7,3.79,3.79-1.7,3.79-3.79,3.79Z"/>
  </g>
  <g>
    <path class="cls-3" d="M322.41,18.88h11.8v58.03h19.47v10.82h-31.27V18.88Z"/>
    <rect class="cls-3" x="360.79" y="37.89" width="10.67" height="49.83"/>
    <path class="cls-3" d="M421.33,59.18v28.56h-10.76v-27.07c0-8.87-.12-14.72-5.81-14.72-6.33,0-8.34,6.6-8.34,16.59v25.2h-10.57v-49.83h10.64v7.6c3.47-6.98,6.89-9.23,12.43-9.23,9.1,0,12.4,7.89,12.4,22.91Z"/>
    <path class="cls-2" d="M132.93,59.18v28.56h-10.76v-27.07c0-8.87-.12-14.72-5.81-14.72-6.33,0-8.34,6.6-8.34,16.59v25.2h-10.57v-49.83h10.64v7.6c3.47-6.98,6.89-9.23,12.43-9.23,9.1,0,12.4,7.89,12.4,22.91Z"/>
    <path class="cls-2" d="M182.4,59.18v28.56h-10.76v-27.07c0-8.87-.12-14.72-5.81-14.72-6.33,0-8.34,6.6-8.34,16.59v25.2h-10.57v-49.83h10.64v7.6c3.47-6.98,6.89-9.23,12.43-9.23,9.1,0,12.4,7.89,12.4,22.91Z"/>
    <path class="cls-3" d="M467.67,65.67l-25.54-.07c.41,8.04,3.05,14.59,8.79,14.59,3.39,0,5.51-2.61,7.59-6.7l8.08,4.77c-2.9,6.74-8.26,11.21-14.72,11.47-12.72.51-20.59-8.38-20.59-26.91,0-16.7,7.53-26.54,19.59-26.54,11.1,0,16.84,10.1,16.84,25.69,0,.93.03,2.6-.04,3.72ZM442.14,57.71h15.19c-.71-7.19-2.12-12.5-7.11-12.5-5.76,0-7.03,6.52-8.08,12.5Z"/>
    <path class="cls-2" d="M228.9,65.67l-25.54-.07c.41,8.04,3.05,14.59,8.79,14.59,3.39,0,5.51-2.61,7.59-6.7l8.08,4.77c-2.9,6.74-8.26,11.21-14.72,11.47-12.72.51-20.59-8.38-20.59-26.91,0-16.7,7.53-26.54,19.59-26.54,11.1,0,16.84,10.1,16.84,25.69,0,.93.03,2.6-.04,3.72ZM203.36,57.71h15.19c-.71-7.19-2.12-12.5-7.11-12.5-5.76,0-7.03,6.52-8.08,12.5Z"/>
    <path class="cls-2" d="M67.3,36.26c-12.79,0-18.95,11.94-18.95,26.65s6.48,26.66,18.95,26.66,18.95-11.94,18.95-26.66c0-15.75-7.11-26.65-18.95-26.65ZM67.3,80.04c-5.42,0-8.23-7.67-8.23-17.13s2.67-17.12,8.23-17.12c5.14,0,8.23,7.01,8.23,17.12,0,9.46-2.55,17.13-8.23,17.13Z"/>
    <path class="cls-2" d="M28.02,78.7c-10.42,0-14.78-12.46-14.78-25.38s4.62-25.32,14.52-25.32c3.4,0,7.08,2.13,10.13,5.69l6.57-8.13c-4-5.54-9.75-8.49-17.22-8.49C10.18,17.08,1.22,33.37,1.22,53.47s9.18,36.1,25.5,36.1c7.98,0,13.77-3.38,17.72-8.97l-6.78-7.96c-2.94,3.7-6.42,6.06-9.64,6.06Z"/>
    <polygon class="cls-2" points="272.53 87.73 260.49 87.73 252.81 69.53 245.07 87.73 233.03 87.73 245.59 61.97 233.92 38.07 245.97 38.07 252.82 54.36 259.67 38.07 271.71 38.07 260.05 61.97 272.53 87.73"/>
    <polygon class="cls-3" points="260.05 61.97 252.81 69.53 245.59 61.97 252.82 54.36 260.05 61.97"/>
    <path class="cls-2" d="M300.74,37.79c-1.99-.93-4.32-1.45-7.01-1.45-6.12,0-12.07,2.72-15.6,7.18l5.31,7.21c1.51-2.94,5.39-5.08,8.56-5.08,5.31,0,8.14,3.27,7.81,11.24-1.4-.08-3.31-.08-5.55.08-3.24.24-6.23.58-9.17,2.08-.99.51-1.98,1.15-2.97,1.97-.5.41-1.82,1.56-3.08,3.44-.42.63-.83,1.34-1.21,2.14-1.11,2.37-1.31,4.61-1.34,6.63-.04,2.6.31,4.77.59,5.84.48,1.79,1.06,3.95,2.94,6.07,2.74,3.09,6.23,3.81,7,3.95.67.12,5.73.97,9.57-2.24,2-1.67,2.98-3.85,3.57-5.17.22-.48.4-.94.55-1.38v7.42h8.99v-33.97c0-6.61-2.9-13.15-8.99-15.97ZM300.11,69.34c0,.26,0,.48-.02.65-.11,2.41-1.14,5.4-2.01,6.96-.51.92-1.49,2.25-2.76,3.09-1.66,1.1-2.74.85-4.01.82-.39,0-1.99-.33-3.37-1.89-.95-1.07-1.15-2.33-1.4-3.23-.14-.54-.24-1.66-.22-2.98.01-.8.08-1.68.38-2.61.08-.24.17-.49.29-.74.75-1.6,1.83-2.54,2.16-2.82,1.97-1.64,3.94-1.89,6.13-2.05,1.3-.09,4.15-.16,4.88-.1-.08.41-.04,3.31-.06,4.89Z"/>
  </g>
</svg>