<?xml version="1.0" encoding="UTF-8"?> <svg xmlns="http://www.w3.org/2000/svg" id="Layer_1" data-name="Layer 1" viewBox="0 0 1000 276.27"><defs><style>.cls-1{fill:#052f26;}</style></defs><path class="cls-1" d="M49.4,266.8H40v-7.13h9.4v-2.78a18.14,18.14,0,0,1,.65-5.07A12.54,12.54,0,0,1,51.87,248a11.55,11.55,0,0,1,2.78-2.8,14.46,14.46,0,0,1,3.53-1.85,21.82,21.82,0,0,1,4-1A30.07,30.07,0,0,1,66.6,242c1,0,2,0,3,.1s2,.16,2.93.29v7.06c-.47-.08-1-.15-1.46-.2s-1-.1-1.51-.13L68.08,249H66.64a18.89,18.89,0,0,0-2.4.13,10.38,10.38,0,0,0-2.18.48,6.64,6.64,0,0,0-1.84.93A5.35,5.35,0,0,0,58.79,252a7.09,7.09,0,0,0-.93,2.12,10.74,10.74,0,0,0-.33,2.89v2.62h15v7.13h-15V301H49.4Z" transform="translate(-40 -39.96)"></path><path class="cls-1" d="M98,294.87a15,15,0,0,0,3.9-.5,13.38,13.38,0,0,0,3.37-1.41,13.08,13.08,0,0,0,2.76-2.21,13.28,13.28,0,0,0,2.06-2.92,16.06,16.06,0,0,0,1.29-3.53,17.56,17.56,0,0,0,.46-4,17.2,17.2,0,0,0-.46-4,16.25,16.25,0,0,0-1.29-3.53,12.61,12.61,0,0,0-2.06-2.92,13,13,0,0,0-2.76-2.2,13.75,13.75,0,0,0-3.37-1.41,15.77,15.77,0,0,0-7.8,0,13.59,13.59,0,0,0-3.37,1.41,13,13,0,0,0-2.76,2.2,12.61,12.61,0,0,0-2.06,2.92,16.58,16.58,0,0,0-1.29,3.5,17.27,17.27,0,0,0-.46,4,17.56,17.56,0,0,0,.46,4,16.06,16.06,0,0,0,1.29,3.53A13.28,13.28,0,0,0,88,290.75,13.08,13.08,0,0,0,90.72,293a13.22,13.22,0,0,0,3.37,1.41,14.94,14.94,0,0,0,3.9.5m0,7.21a23.7,23.7,0,0,1-9-1.65A21.26,21.26,0,0,1,82,295.87,20.28,20.28,0,0,1,77.36,289a23.74,23.74,0,0,1,0-17.34A20.51,20.51,0,0,1,82,264.73,21.31,21.31,0,0,1,89,260.15a25.47,25.47,0,0,1,17.93,0,20.91,20.91,0,0,1,7.06,4.58,20.68,20.68,0,0,1,4.62,6.88,23.34,23.34,0,0,1,0,17.34,20.45,20.45,0,0,1-4.62,6.92,20.86,20.86,0,0,1-7.06,4.56,23.78,23.78,0,0,1-9,1.65" transform="translate(-40 -39.96)"></path><path class="cls-1" d="M128.79,259.67h8.12v6.86a11.86,11.86,0,0,1,3-3.95,14.8,14.8,0,0,1,4-2.45,17.07,17.07,0,0,1,4.4-1.18,18.09,18.09,0,0,1,4.28,0v8.6a20.44,20.44,0,0,0-3.94-.24,15.07,15.07,0,0,0-3.67.62,11.49,11.49,0,0,0-3.21,1.55,10.34,10.34,0,0,0-2.56,2.51,11.32,11.32,0,0,0-1.68,3.53,16.23,16.23,0,0,0-.6,4.6V301h-8.12Z" transform="translate(-40 -39.96)"></path><path class="cls-1" d="M199.85,294.87a15.24,15.24,0,0,0,3.67-.45,13.61,13.61,0,0,0,3.29-1.34,12.86,12.86,0,0,0,4.91-5,14,14,0,0,0,1.37-3.57,18.53,18.53,0,0,0,0-8.38,13.93,13.93,0,0,0-1.37-3.56,13.13,13.13,0,0,0-2.13-2.87,12.69,12.69,0,0,0-2.78-2.13,12.85,12.85,0,0,0-3.29-1.34,15.15,15.15,0,0,0-7.33,0,13,13,0,0,0-3.29,1.34,12.18,12.18,0,0,0-2.77,2.13,13.54,13.54,0,0,0-2.15,2.87,14.69,14.69,0,0,0-1.36,3.56,18.53,18.53,0,0,0,0,8.38,14.77,14.77,0,0,0,1.36,3.57,13.54,13.54,0,0,0,2.15,2.87,12.51,12.51,0,0,0,2.77,2.14,13.78,13.78,0,0,0,3.29,1.34,15.29,15.29,0,0,0,3.66.45m1.23,7.21a20.12,20.12,0,0,1-4.69-.52,19.15,19.15,0,0,1-4-1.42,15.82,15.82,0,0,1-3.26-2.13,13.4,13.4,0,0,1-2.38-2.54v20.76h-8.13V259.67h8.13v5.5a12.73,12.73,0,0,1,2.38-2.58,17.56,17.56,0,0,1,3.26-2.1,19.15,19.15,0,0,1,4-1.42,20.68,20.68,0,0,1,4.69-.51,23.31,23.31,0,0,1,5.87.73,20.16,20.16,0,0,1,5.11,2.12,20.37,20.37,0,0,1,4.23,3.33,19.87,19.87,0,0,1,3.19,4.37,22.61,22.61,0,0,1,2,5.25,25.37,25.37,0,0,1,0,11.92,22.44,22.44,0,0,1-2,5.25,19.69,19.69,0,0,1-7.42,7.69,19.46,19.46,0,0,1-5.11,2.12,22.86,22.86,0,0,1-5.87.74" transform="translate(-40 -39.96)"></path><path class="cls-1" d="M272.81,275.68a23.43,23.43,0,0,0-1.84-6,19,19,0,0,0-3.19-4.78,18.81,18.81,0,0,0-4.34-3.49,21.12,21.12,0,0,0-5.29-2.15,24.73,24.73,0,0,0-6-.72,23.11,23.11,0,0,0-5.93.75,21.44,21.44,0,0,0-5.23,2.14,20.21,20.21,0,0,0-4.34,3.35,20.88,20.88,0,0,0-3.33,4.4,21.4,21.4,0,0,0-2.12,5.25,23.41,23.41,0,0,0-.74,5.94A22.29,22.29,0,0,0,232.1,289a20.35,20.35,0,0,0,4.62,6.87,20.92,20.92,0,0,0,7.14,4.56,24.78,24.78,0,0,0,9.23,1.65,27.67,27.67,0,0,0,5.91-.62,22.86,22.86,0,0,0,5.31-1.84,23.16,23.16,0,0,0,4.65-3.05,25,25,0,0,0,4-4.24L267.4,288a18.15,18.15,0,0,1-2.9,3.26,16,16,0,0,1-3.26,2.21,14.93,14.93,0,0,1-3.63,1.22,20.69,20.69,0,0,1-4,.37,17.77,17.77,0,0,1-4.26-.49,14.38,14.38,0,0,1-3.66-1.43,13.53,13.53,0,0,1-3-2.24,12.47,12.47,0,0,1-2.19-2.92,13.88,13.88,0,0,1-1.35-3.57c-.12-.51-.21-1-.28-1.56h34.23A29.75,29.75,0,0,0,272.81,275.68Zm-33.65.28a15.86,15.86,0,0,1,1.26-3.65,13.72,13.72,0,0,1,2.06-3.05,11.85,11.85,0,0,1,2.71-2.26,13,13,0,0,1,3.22-1.41,13.29,13.29,0,0,1,3.65-.49,13.62,13.62,0,0,1,4.84.83,11.78,11.78,0,0,1,3.78,2.28,10.68,10.68,0,0,1,2.55,3.43,12.33,12.33,0,0,1,1.16,4.32Z" transform="translate(-40 -39.96)"></path><path class="cls-1" d="M303.76,294.87a15,15,0,0,0,3.91-.5A13.53,13.53,0,0,0,311,293a12.68,12.68,0,0,0,4.82-5.13,16.06,16.06,0,0,0,1.29-3.53,17.56,17.56,0,0,0,.46-4,17.2,17.2,0,0,0-.46-4,16.25,16.25,0,0,0-1.29-3.53,12.32,12.32,0,0,0-2.06-2.92,13,13,0,0,0-2.76-2.2,13.92,13.92,0,0,0-3.37-1.41,15.81,15.81,0,0,0-7.81,0,13.68,13.68,0,0,0-3.36,1.41,13,13,0,0,0-2.76,2.2,12.61,12.61,0,0,0-2.06,2.92,16.58,16.58,0,0,0-1.29,3.5,17.28,17.28,0,0,0-.45,4,17.56,17.56,0,0,0,.45,4,16.06,16.06,0,0,0,1.29,3.53,13.28,13.28,0,0,0,2.06,2.92A13.08,13.08,0,0,0,296.5,293a13.3,13.3,0,0,0,3.36,1.41,15,15,0,0,0,3.9.5m0,7.21a23.68,23.68,0,0,1-8.95-1.65,21.26,21.26,0,0,1-7.06-4.56,20.31,20.31,0,0,1-4.62-6.92,23.74,23.74,0,0,1,0-17.34,20.53,20.53,0,0,1,4.62-6.88,21.31,21.31,0,0,1,7.06-4.58,25.5,25.5,0,0,1,17.94,0,20.84,20.84,0,0,1,11.67,11.46,23.34,23.34,0,0,1,0,17.34,20.6,20.6,0,0,1-4.62,6.92,20.91,20.91,0,0,1-7.05,4.56,23.85,23.85,0,0,1-9,1.65" transform="translate(-40 -39.96)"></path><path class="cls-1" d="M355.65,294.87a15.24,15.24,0,0,0,3.67-.45,13.61,13.61,0,0,0,3.29-1.34,12.8,12.8,0,0,0,2.78-2.14,13.5,13.5,0,0,0,2.14-2.87,14.78,14.78,0,0,0,1.37-3.57,18.53,18.53,0,0,0,0-8.38,14.71,14.71,0,0,0-1.37-3.56,13.5,13.5,0,0,0-2.14-2.87,12.46,12.46,0,0,0-2.78-2.13,12.85,12.85,0,0,0-3.29-1.34,15.15,15.15,0,0,0-7.33,0,12.85,12.85,0,0,0-3.29,1.34,12.63,12.63,0,0,0-2.77,2.13,13.5,13.5,0,0,0-2.14,2.87,14.31,14.31,0,0,0-1.37,3.56,18.91,18.91,0,0,0,0,8.38,14.38,14.38,0,0,0,1.37,3.57,13.5,13.5,0,0,0,2.14,2.87,13,13,0,0,0,2.77,2.14,13.61,13.61,0,0,0,3.29,1.34,15.29,15.29,0,0,0,3.66.45m1.24,7.21a20.21,20.21,0,0,1-4.7-.52,18.67,18.67,0,0,1-4-1.42,15.9,15.9,0,0,1-3.27-2.13,13.73,13.73,0,0,1-2.38-2.54v20.76h-8.13V259.67h8.13v5.5a13,13,0,0,1,2.38-2.58,17.65,17.65,0,0,1,3.27-2.1,18.67,18.67,0,0,1,4-1.42,20.77,20.77,0,0,1,4.7-.51,23.23,23.23,0,0,1,5.86.73,19.88,19.88,0,0,1,9.34,5.45,19.55,19.55,0,0,1,3.19,4.37,22.63,22.63,0,0,1,2,5.25,25.72,25.72,0,0,1,0,11.92,22.46,22.46,0,0,1-2,5.25,19.76,19.76,0,0,1-7.41,7.69,19.53,19.53,0,0,1-5.12,2.12,22.78,22.78,0,0,1-5.86.74" transform="translate(-40 -39.96)"></path><rect class="cls-1" x="346.3" y="202.8" width="8.12" height="58.26"></rect><path class="cls-1" d="M445.08,275.74a23.25,23.25,0,0,0-1.85-6,18.43,18.43,0,0,0-3.19-4.77,18.85,18.85,0,0,0-4.33-3.5,21,21,0,0,0-5.3-2.13,24.19,24.19,0,0,0-6-.74,23,23,0,0,0-5.92.76,21.28,21.28,0,0,0-5.23,2.14,20.51,20.51,0,0,0-4.35,3.35,21.3,21.3,0,0,0-5.44,9.66,23.33,23.33,0,0,0-.74,5.93,22.24,22.24,0,0,0,1.65,8.64,20.24,20.24,0,0,0,4.62,6.88,21,21,0,0,0,7.14,4.56,25,25,0,0,0,9.23,1.64,27.74,27.74,0,0,0,5.91-.61,23.72,23.72,0,0,0,5.3-1.83,23,23,0,0,0,4.66-3.07,24.15,24.15,0,0,0,3.94-4.23l-5.5-4.29a17.42,17.42,0,0,1-2.9,3.25,14.94,14.94,0,0,1-3.27,2.21,14.38,14.38,0,0,1-3.63,1.22,19.82,19.82,0,0,1-4,.38,17.71,17.71,0,0,1-4.26-.49,14.83,14.83,0,0,1-3.67-1.43,13.47,13.47,0,0,1-3-2.24,13.07,13.07,0,0,1-2.2-2.93,14.24,14.24,0,0,1-1.34-3.55,13.56,13.56,0,0,1-.28-1.57h34.23A30.26,30.26,0,0,0,445.08,275.74Zm-33.66.27a16.46,16.46,0,0,1,1.27-3.64,13.72,13.72,0,0,1,2.06-3.05,12.29,12.29,0,0,1,2.7-2.26,12.47,12.47,0,0,1,3.23-1.41,13.29,13.29,0,0,1,3.65-.49,13.62,13.62,0,0,1,4.84.83,11.63,11.63,0,0,1,3.77,2.28,10.86,10.86,0,0,1,2.56,3.43,12.28,12.28,0,0,1,1.16,4.31Z" transform="translate(-40 -39.96)"></path><path class="cls-1" d="M493.37,294.92a14.91,14.91,0,0,0,3.71-.45,13.19,13.19,0,0,0,3.29-1.33,12.73,12.73,0,0,0,2.78-2.14,13.45,13.45,0,0,0,2.13-2.87,13.86,13.86,0,0,0,1.37-3.57,18.53,18.53,0,0,0,0-8.38,13.86,13.86,0,0,0-1.37-3.55,13,13,0,0,0-4.91-5,13.59,13.59,0,0,0-3.29-1.33,14.45,14.45,0,0,0-3.71-.45,14.28,14.28,0,0,0-3.66.45,13.42,13.42,0,0,0-3.29,1.33,13.1,13.1,0,0,0-2.78,2.15,13.33,13.33,0,0,0-2.14,2.87,14.22,14.22,0,0,0-1.36,3.55,18.53,18.53,0,0,0,0,8.38,14.22,14.22,0,0,0,1.36,3.57,13.84,13.84,0,0,0,2.14,2.87,12.73,12.73,0,0,0,2.78,2.14,13,13,0,0,0,3.29,1.33,14.74,14.74,0,0,0,3.66.45m-1.22,7.21a23,23,0,0,1-5.85-.72,20.27,20.27,0,0,1-5.1-2.13,19.64,19.64,0,0,1-7.4-7.69,21.93,21.93,0,0,1-2-5.25,25.41,25.41,0,0,1,0-11.93,21.93,21.93,0,0,1,2-5.25A19.68,19.68,0,0,1,477,264.8a19.94,19.94,0,0,1,9.32-5.45,22.54,22.54,0,0,1,5.85-.74,20.11,20.11,0,0,1,4.69.53,17.37,17.37,0,0,1,7.32,3.51,14.61,14.61,0,0,1,2.42,2.58v-5.51h8.12V301h-8.12v-5.51a15.72,15.72,0,0,1-5.69,4.67,17.63,17.63,0,0,1-4.05,1.43,20.68,20.68,0,0,1-4.69.51" transform="translate(-40 -39.96)"></path><path class="cls-1" d="M523.83,259.65H532v5a12.91,12.91,0,0,1,2.33-2.57,13.64,13.64,0,0,1,3-1.92A15.9,15.9,0,0,1,541,259a21.26,21.26,0,0,1,4.32-.41,17.62,17.62,0,0,1,6.68,1.21,13.79,13.79,0,0,1,5.1,3.48,15.88,15.88,0,0,1,3.23,5.58,22.73,22.73,0,0,1,1.13,7.4V301h-8.13V278.08a17.4,17.4,0,0,0-.74-5.34,10.58,10.58,0,0,0-2.11-3.88,9.15,9.15,0,0,0-3.38-2.38,12.77,12.77,0,0,0-9,0,9,9,0,0,0-3.37,2.38,10.59,10.59,0,0,0-2.12,3.88,17.73,17.73,0,0,0-.73,5.34V301h-8.13Z" transform="translate(-40 -39.96)"></path><path class="cls-1" d="M592.09,294.81a14.84,14.84,0,0,0,3.71-.46,13.19,13.19,0,0,0,3.29-1.33,12.73,12.73,0,0,0,2.78-2.14A13.58,13.58,0,0,0,604,288a14.78,14.78,0,0,0,1.37-3.57,18.91,18.91,0,0,0,0-8.38A14.71,14.71,0,0,0,604,272.5a13.84,13.84,0,0,0-2.14-2.87,13,13,0,0,0-2.78-2.14,13.19,13.19,0,0,0-3.29-1.33,15.35,15.35,0,0,0-7.38,0,13.28,13.28,0,0,0-3.28,1.33,13,13,0,0,0-2.78,2.14,13.45,13.45,0,0,0-2.13,2.87,13.93,13.93,0,0,0-1.37,3.56,18.53,18.53,0,0,0,0,8.38,14,14,0,0,0,1.37,3.57,13.21,13.21,0,0,0,2.13,2.87,12.73,12.73,0,0,0,2.78,2.14,13.28,13.28,0,0,0,3.28,1.33,14.88,14.88,0,0,0,3.67.46M590.87,302a23,23,0,0,1-5.85-.73,20.07,20.07,0,0,1-9.31-5.45,19.64,19.64,0,0,1-3.19-4.36,21.83,21.83,0,0,1-2-5.26,25,25,0,0,1,0-11.92,21.75,21.75,0,0,1,2-5.25,19.24,19.24,0,0,1,3.19-4.37,20.25,20.25,0,0,1,4.21-3.33,20,20,0,0,1,5.1-2.12,23,23,0,0,1,5.85-.73,20.68,20.68,0,0,1,4.69.51,18.42,18.42,0,0,1,4.05,1.42,17.65,17.65,0,0,1,3.27,2.1,14.25,14.25,0,0,1,2.42,2.58V242.64h8.12v58.27H605.3v-5.5a15.12,15.12,0,0,1-2.42,2.54,15.9,15.9,0,0,1-3.27,2.13,19,19,0,0,1-4.05,1.42,20.12,20.12,0,0,1-4.69.52" transform="translate(-40 -39.96)"></path><path class="cls-1" d="M663.53,301.47a25,25,0,0,1-5.69-.62,11.12,11.12,0,0,1-4.56-2.18,10.46,10.46,0,0,1-3-4.25,17.8,17.8,0,0,1-1.12-6.79V266.74h-9.39v-7.13h9.39V248.34h8.1v11.27H670.5v7.13H657.23v20.18a9.36,9.36,0,0,0,.61,3.68A5.5,5.5,0,0,0,662,294a14.55,14.55,0,0,0,3,.3c.5,0,1,0,1.45,0s.9,0,1.33-.08l1.25-.12c.4,0,.79-.08,1.17-.14v7c-.59.08-1.15.15-1.71.24s-1.11.14-1.67.18-1.1.07-1.66.09-1.09.05-1.62.05" transform="translate(-40 -39.96)"></path><path class="cls-1" d="M678.79,242.64h8.13v22a12.66,12.66,0,0,1,2.34-2.57,13.7,13.7,0,0,1,3-1.92A17,17,0,0,1,696,258.9a22.63,22.63,0,0,1,4.31-.4,17.67,17.67,0,0,1,6.69,1.21,14,14,0,0,1,5.09,3.48,15.37,15.37,0,0,1,3.22,5.57,22.58,22.58,0,0,1,1.14,7.42v24.73h-8.13V278a17.77,17.77,0,0,0-.73-5.34,10.89,10.89,0,0,0-2.12-3.88,9.08,9.08,0,0,0-3.37-2.38,12.79,12.79,0,0,0-9,0,9.08,9.08,0,0,0-3.37,2.38,10.74,10.74,0,0,0-2.12,3.88,17.77,17.77,0,0,0-.73,5.34v22.87h-8.13Z" transform="translate(-40 -39.96)"></path><path class="cls-1" d="M767.09,275.62a23,23,0,0,0-1.84-6,18.23,18.23,0,0,0-3.19-4.78,18.65,18.65,0,0,0-4.34-3.49,20.67,20.67,0,0,0-5.29-2.15,24.59,24.59,0,0,0-6-.72,23.11,23.11,0,0,0-5.93.75,21.05,21.05,0,0,0-5.23,2.14,20.21,20.21,0,0,0-4.34,3.35,20.88,20.88,0,0,0-3.33,4.4,21.4,21.4,0,0,0-2.12,5.25,23.35,23.35,0,0,0-.74,5.94,22.29,22.29,0,0,0,1.65,8.65,20.35,20.35,0,0,0,4.62,6.87,20.92,20.92,0,0,0,7.14,4.56,24.77,24.77,0,0,0,9.22,1.65,27.69,27.69,0,0,0,5.92-.62,22.62,22.62,0,0,0,5.3-1.84,23.29,23.29,0,0,0,4.67-3.05,24.16,24.16,0,0,0,3.93-4.24l-5.5-4.29a17.82,17.82,0,0,1-2.9,3.26,15.25,15.25,0,0,1-3.27,2.2,14.33,14.33,0,0,1-3.62,1.23,20.72,20.72,0,0,1-4,.38,17.78,17.78,0,0,1-4.27-.5,14.1,14.1,0,0,1-3.66-1.43,13.2,13.2,0,0,1-5.18-5.16,13.87,13.87,0,0,1-1.34-3.57c-.12-.51-.21-1-.28-1.56H767.4A29.73,29.73,0,0,0,767.09,275.62Zm-33.64.28a15.42,15.42,0,0,1,1.27-3.65,13.07,13.07,0,0,1,2.06-3.05,11.76,11.76,0,0,1,2.69-2.26,13.18,13.18,0,0,1,3.23-1.41,13.32,13.32,0,0,1,3.64-.49,13.54,13.54,0,0,1,4.84.83,11.73,11.73,0,0,1,3.79,2.28,11,11,0,0,1,2.56,3.43,12.54,12.54,0,0,1,1.15,4.32Z" transform="translate(-40 -39.96)"></path><path class="cls-1" d="M817.26,294.81a14.82,14.82,0,0,0,3.67-.46,13.12,13.12,0,0,0,3.28-1.33,12.5,12.5,0,0,0,2.78-2.14,13.25,13.25,0,0,0,2.14-2.87,14.78,14.78,0,0,0,1.37-3.57,18.91,18.91,0,0,0,0-8.38,14.71,14.71,0,0,0-1.37-3.56,13.5,13.5,0,0,0-2.14-2.87,12.8,12.8,0,0,0-2.78-2.14,13.12,13.12,0,0,0-3.28-1.33,15.19,15.19,0,0,0-7.34,0,13.35,13.35,0,0,0-3.29,1.33,12.75,12.75,0,0,0-2.77,2.14,13.17,13.17,0,0,0-2.14,2.87,14.31,14.31,0,0,0-1.37,3.56,18.91,18.91,0,0,0,0,8.38,14.38,14.38,0,0,0,1.37,3.57,12.93,12.93,0,0,0,2.14,2.87A12.44,12.44,0,0,0,810.3,293a13.35,13.35,0,0,0,3.29,1.33,14.82,14.82,0,0,0,3.67.46m1.23,7.21a20.21,20.21,0,0,1-4.7-.52,19.15,19.15,0,0,1-4-1.42,15.82,15.82,0,0,1-3.26-2.13,13.4,13.4,0,0,1-2.38-2.54v20.77H796V259.61h8.12v5.5a12.73,12.73,0,0,1,2.38-2.58,17.56,17.56,0,0,1,3.26-2.1,18.61,18.61,0,0,1,4-1.42,20.77,20.77,0,0,1,4.7-.51,23.23,23.23,0,0,1,5.86.73,19.81,19.81,0,0,1,5.11,2.12,20.37,20.37,0,0,1,4.23,3.33,19.87,19.87,0,0,1,3.19,4.37,22.17,22.17,0,0,1,2,5.25,25,25,0,0,1,0,11.92,22.25,22.25,0,0,1-2,5.26,19.75,19.75,0,0,1-7.42,7.68,19.83,19.83,0,0,1-5.11,2.13,23.23,23.23,0,0,1-5.86.73" transform="translate(-40 -39.96)"></path><rect class="cls-1" x="807.9" y="202.68" width="8.13" height="58.27"></rect><path class="cls-1" d="M886.64,294.81a14.82,14.82,0,0,0,3.7-.46,13.27,13.27,0,0,0,3.3-1.33,12.68,12.68,0,0,0,2.77-2.14,13.25,13.25,0,0,0,2.14-2.87,14.38,14.38,0,0,0,1.37-3.57,18.91,18.91,0,0,0,0-8.38,14.31,14.31,0,0,0-1.37-3.56,13.5,13.5,0,0,0-2.14-2.87,13,13,0,0,0-2.77-2.14,13.27,13.27,0,0,0-3.3-1.33,15.31,15.31,0,0,0-7.37,0,13.51,13.51,0,0,0-3.29,1.33,13,13,0,0,0-2.77,2.14,13.5,13.5,0,0,0-2.14,2.87,14.31,14.31,0,0,0-1.37,3.56,18.53,18.53,0,0,0,0,8.38,14.38,14.38,0,0,0,1.37,3.57,13.25,13.25,0,0,0,2.14,2.87,12.68,12.68,0,0,0,2.77,2.14,13.51,13.51,0,0,0,3.29,1.33,14.82,14.82,0,0,0,3.67.46M885.41,302a23,23,0,0,1-5.85-.73,20,20,0,0,1-5.09-2.13,20.27,20.27,0,0,1-4.22-3.32,19.64,19.64,0,0,1-3.19-4.36,22.25,22.25,0,0,1-2-5.26,25,25,0,0,1,0-11.92,22.17,22.17,0,0,1,2-5.25,19.24,19.24,0,0,1,3.19-4.37,20.31,20.31,0,0,1,4.22-3.33,20,20,0,0,1,5.09-2.12,23,23,0,0,1,5.85-.73,20.62,20.62,0,0,1,4.69.51,18.24,18.24,0,0,1,4,1.42,17.65,17.65,0,0,1,3.27,2.1,14.25,14.25,0,0,1,2.42,2.58v-5.5H908v41.3h-8.12v-5.5a15.12,15.12,0,0,1-2.42,2.54,15.9,15.9,0,0,1-3.27,2.13,18.76,18.76,0,0,1-4,1.42,20.06,20.06,0,0,1-4.69.52" transform="translate(-40 -39.96)"></path><path class="cls-1" d="M917.09,259.61h8.13v5a13.19,13.19,0,0,1,2.34-2.56,14.18,14.18,0,0,1,3-1.92,16.47,16.47,0,0,1,3.71-1.21,21.19,21.19,0,0,1,4.32-.41,17.62,17.62,0,0,1,6.68,1.21,14,14,0,0,1,5.09,3.48,15.58,15.58,0,0,1,3.23,5.58,22.68,22.68,0,0,1,1.13,7.4v24.74h-8.13V278a18.11,18.11,0,0,0-.72-5.34,10.84,10.84,0,0,0-2.13-3.88,9.07,9.07,0,0,0-3.36-2.38,11.82,11.82,0,0,0-4.49-.81,11.64,11.64,0,0,0-4.47.81,9.15,9.15,0,0,0-3.38,2.38A10.83,10.83,0,0,0,926,272.7a17.77,17.77,0,0,0-.73,5.34v22.87h-8.13Z" transform="translate(-40 -39.96)"></path><path class="cls-1" d="M1005.39,275.78a23,23,0,0,0-1.84-6,18.62,18.62,0,0,0-7.53-8.27,20.65,20.65,0,0,0-5.29-2.14,24.11,24.11,0,0,0-6-.73,22.68,22.68,0,0,0-5.93.76,20.32,20.32,0,0,0-5.23,2.14,19.85,19.85,0,0,0-4.34,3.34,21.2,21.2,0,0,0-5.45,9.66,23.33,23.33,0,0,0-.74,5.93,22.29,22.29,0,0,0,1.65,8.65,20.44,20.44,0,0,0,4.62,6.87,20.92,20.92,0,0,0,7.14,4.56,24.77,24.77,0,0,0,9.22,1.65,27.69,27.69,0,0,0,5.92-.62,23.06,23.06,0,0,0,5.3-1.83,23.34,23.34,0,0,0,4.67-3.06,24.89,24.89,0,0,0,3.93-4.24l-5.5-4.29a17.82,17.82,0,0,1-2.9,3.26,15.25,15.25,0,0,1-3.27,2.2,13.92,13.92,0,0,1-3.62,1.22,20,20,0,0,1-4,.38,17.79,17.79,0,0,1-4.27-.49,14.44,14.44,0,0,1-3.66-1.42,13.89,13.89,0,0,1-3-2.25,13.15,13.15,0,0,1-2.2-2.93,13.72,13.72,0,0,1-1.34-3.55,13.19,13.19,0,0,1-.28-1.57h34.23A29.75,29.75,0,0,0,1005.39,275.78Zm-33.64.28a15.58,15.58,0,0,1,1.27-3.65,13.07,13.07,0,0,1,2.06-3.05,12,12,0,0,1,2.69-2.26,13.18,13.18,0,0,1,3.23-1.41,13.72,13.72,0,0,1,3.64-.49,13.54,13.54,0,0,1,4.84.83,11.73,11.73,0,0,1,3.79,2.28,11,11,0,0,1,2.56,3.43,12.54,12.54,0,0,1,1.15,4.32Z" transform="translate(-40 -39.96)"></path><path class="cls-1" d="M1033,301.63a25.07,25.07,0,0,1-5.69-.61,11.16,11.16,0,0,1-4.55-2.19,10.48,10.48,0,0,1-3-4.24,17.9,17.9,0,0,1-1.11-6.8V266.9h-9.39v-7.13h9.39V248.51h8.09v11.26H1040v7.13h-13.28v20.18a9.39,9.39,0,0,0,.61,3.68A5.64,5.64,0,0,0,1029,293a5.8,5.8,0,0,0,2.46,1.14,14.58,14.58,0,0,0,3,.3c.51,0,1,0,1.44,0s.91,0,1.33-.08l1.26-.11,1.16-.15v7l-1.71.24q-.83.12-1.65.18l-1.67.1c-.56,0-1.1,0-1.63,0" transform="translate(-40 -39.96)"></path><path class="cls-1" d="M71.2,178.68h0Zm96.58,35.18a19.44,19.44,0,0,1-5-.68C138.8,206.86,143.52,169.38,149,126c1.25-9.88,2.9-23,3.49-32.64-2.17,2.53-4.81,5.91-8,10.44-7.84,11.2-16.33,25.61-24.53,39.55-9.13,15.5-17.75,30.13-25.71,40.94-4.34,5.89-14.68,19.92-27.45,19.92a18.07,18.07,0,0,1-8-1.88c-19.11-9.17-18.87-38.27-18.6-72,0-2.78,0-5.57.05-8.35l0-13.41,26.82.1-.05,13.41c0,2.82,0,5.65,0,8.46-.11,12-.27,32.34,2,42.6,7.69-9.27,19.46-29.24,27.8-43.42C122,86.93,142,53.12,165.56,60.19c14.69,4.4,14.08,23.14,13.82,31.14-.34,10.59-2,23.91-3.79,38s-4.72,37.51-4.24,51c8.76-12.13,21.35-36.05,29.64-51.8,27.69-52.61,43.11-79.82,63.95-74.47,16.4,4.2,18.33,23.07,19.06,30.17,1.21,11.81.59,34.91.71,48.42.13,14.28,0,42.27,0,53.78v14.09l-27.47.19-.1-13.4c-.15-20.93.21-38.81.52-54.58.37-18.39.74-37.27-.48-47.56C248,96.86,233.85,123.7,224.73,141c-23.44,44.52-38.35,72.83-56.95,72.83" transform="translate(-40 -39.96)"></path><path class="cls-1" d="M411.62,129.51A68.8,68.8,0,0,0,407,112.34a53.09,53.09,0,0,0-8.16-13.52A47,47,0,0,0,387.58,89a51.19,51.19,0,0,0-14-6,63.24,63.24,0,0,0-16.32-2,60.42,60.42,0,0,0-16.16,2.07,54.79,54.79,0,0,0-14,6,50.31,50.31,0,0,0-11.34,9.4,61.35,61.35,0,0,0-14,27.29,75.85,75.85,0,0,0-1.84,16.87,70.14,70.14,0,0,0,4.19,24.66,56.42,56.42,0,0,0,12,19.45,54.42,54.42,0,0,0,19,12.81,65.38,65.38,0,0,0,25.09,4.58,70.89,70.89,0,0,0,15.32-1.62,60.44,60.44,0,0,0,13.7-4.81,62.71,62.71,0,0,0,12.08-7.83,59.61,59.61,0,0,0,10.11-10.67l-15.77-14.31a46.79,46.79,0,0,1-7,7.93,37.56,37.56,0,0,1-16.89,8.78,44.11,44.11,0,0,1-9.89,1.06,40.38,40.38,0,0,1-10.62-1.34,33,33,0,0,1-8.94-3.86,31,31,0,0,1-7.11-6.09,35.44,35.44,0,0,1-5.14-8,44.51,44.51,0,0,1-3.18-9.62c-.26-1.19-.44-2.4-.59-3.64h85.9A98.88,98.88,0,0,0,411.62,129.51Zm-84.83.22a44.81,44.81,0,0,1,2.7-9.51,38.62,38.62,0,0,1,4.7-8.33,27.55,27.55,0,0,1,6.26-6.09,26.31,26.31,0,0,1,7.72-3.69,30.52,30.52,0,0,1,8.66-1.23,29,29,0,0,1,11.79,2.29,27.39,27.39,0,0,1,8.89,6.15,27.72,27.72,0,0,1,5.76,9.11,34.14,34.14,0,0,1,2.29,11.3Z" transform="translate(-40 -39.96)"></path><path class="cls-1" d="M429.23,84.25h26v19.23a34.69,34.69,0,0,1,7.66-10.68,38.73,38.73,0,0,1,21.14-10.06,48,48,0,0,1,10.67-.27V109.3a43.41,43.41,0,0,0-10.23-.57,37.84,37.84,0,0,0-9.39,1.8,28.27,28.27,0,0,0-8.05,4.13,25.66,25.66,0,0,0-6.27,6.71,32.93,32.93,0,0,0-4.07,9.12,41.17,41.17,0,0,0-1.46,11.34v58.92h-26Z" transform="translate(-40 -39.96)"></path><path class="cls-1" d="M511.52,84.25h25.82v116.5H511.52Zm12.91-16.77a15.07,15.07,0,0,1-5.43-1,12.29,12.29,0,0,1-4.37-2.74,12.78,12.78,0,0,1-2.89-4.28,14.7,14.7,0,0,1,0-11,12.37,12.37,0,0,1,2.89-4.23A13.69,13.69,0,0,1,519,41.56a14.74,14.74,0,0,1,5.53-1,14.48,14.48,0,0,1,5.43,1,13.63,13.63,0,0,1,4.38,2.74,11.73,11.73,0,0,1,2.84,4.23,14.86,14.86,0,0,1,1,5.58,14.09,14.09,0,0,1-1,5.48,12.45,12.45,0,0,1-2.84,4.18A12.25,12.25,0,0,1,530,66.51a15.34,15.34,0,0,1-5.53,1" transform="translate(-40 -39.96)"></path><path class="cls-1" d="M643.13,153.41a43.26,43.26,0,0,1-3.08,9.55,34.17,34.17,0,0,1-4.86,7.77,31.88,31.88,0,0,1-6.43,5.87,26.7,26.7,0,0,1-7.77,3.69,30.65,30.65,0,0,1-8.78,1.24,30.09,30.09,0,0,1-8.72-1.24,26.85,26.85,0,0,1-7.71-3.69,31.61,31.61,0,0,1-6.43-5.87,34.17,34.17,0,0,1-4.86-7.77,45,45,0,0,1-3.14-9.55,54.73,54.73,0,0,1,0-22,44.67,44.67,0,0,1,3.14-9.56,34.46,34.46,0,0,1,4.86-7.78,31.85,31.85,0,0,1,6.43-5.86,27.12,27.12,0,0,1,7.71-3.69,30.43,30.43,0,0,1,8.72-1.23,31,31,0,0,1,8.78,1.23,27,27,0,0,1,7.77,3.69,32.12,32.12,0,0,1,6.43,5.86,34.46,34.46,0,0,1,4.86,7.78,43,43,0,0,1,3.08,9.56,57.76,57.76,0,0,1,0,22M642.51,40V98.23a50.47,50.47,0,0,0-6.31-6.88,39.05,39.05,0,0,0-8.11-5.59,41.05,41.05,0,0,0-10-3.63,51.62,51.62,0,0,0-11.46-1.23A52.84,52.84,0,0,0,591.75,83a47.93,47.93,0,0,0-12.91,5.93,54.36,54.36,0,0,0-18.9,21.58,67.2,67.2,0,0,0-5.09,14.76,82.91,82.91,0,0,0,0,34.27,67.09,67.09,0,0,0,5.09,14.81,54.36,54.36,0,0,0,18.9,21.58,47.93,47.93,0,0,0,12.91,5.93,52.49,52.49,0,0,0,14.87,2.07,51.62,51.62,0,0,0,11.46-1.23,41.49,41.49,0,0,0,10-3.64,38.67,38.67,0,0,0,8.11-5.59,49.89,49.89,0,0,0,6.31-6.88v14.09h25.83V40Z" transform="translate(-40 -39.96)"></path><path class="cls-1" d="M689.2,84.25H715v116.5H689.2Zm12.92-16.77a15.12,15.12,0,0,1-5.44-1,12.2,12.2,0,0,1-4.37-2.74,12.78,12.78,0,0,1-2.89-4.28,14.7,14.7,0,0,1,0-11,12.37,12.37,0,0,1,2.89-4.23,13.58,13.58,0,0,1,4.37-2.74,14.77,14.77,0,0,1,5.53-1,14.53,14.53,0,0,1,5.44,1A13.69,13.69,0,0,1,712,44.3a11.86,11.86,0,0,1,2.84,4.23,14.67,14.67,0,0,1,1,5.58,13.91,13.91,0,0,1-1,5.48A12.6,12.6,0,0,1,712,63.77a12.29,12.29,0,0,1-4.37,2.74,15.34,15.34,0,0,1-5.53,1" transform="translate(-40 -39.96)"></path><path class="cls-1" d="M789.33,181.63a31.1,31.1,0,0,0,8.78-1.23,26.51,26.51,0,0,0,7.76-3.69,31.56,31.56,0,0,0,6.43-5.86,34.62,34.62,0,0,0,4.86-7.77,43.35,43.35,0,0,0,3.08-9.56,57.23,57.23,0,0,0,0-22,43.18,43.18,0,0,0-3.08-9.56,34.62,34.62,0,0,0-4.86-7.77,31.91,31.91,0,0,0-6.43-5.87,27,27,0,0,0-7.76-3.69,31.1,31.1,0,0,0-8.78-1.24,30.5,30.5,0,0,0-8.73,1.24,27.25,27.25,0,0,0-7.71,3.69,32.18,32.18,0,0,0-6.43,5.87,35,35,0,0,0-4.86,7.77,44.85,44.85,0,0,0-3.13,9.56,54.73,54.73,0,0,0,0,22,45,45,0,0,0,3.13,9.56,35,35,0,0,0,4.86,7.77,31.83,31.83,0,0,0,6.43,5.86,26.72,26.72,0,0,0,7.71,3.69,30.5,30.5,0,0,0,8.73,1.23m-5.6,22.25a53.88,53.88,0,0,1-14.86-2A45.78,45.78,0,0,1,756,196a56.35,56.35,0,0,1-10.73-9.34,52.64,52.64,0,0,1-8.16-12.18A65.9,65.9,0,0,1,732,159.6a82.86,82.86,0,0,1,0-34.26,66.18,66.18,0,0,1,5.09-14.76A54.26,54.26,0,0,1,756,89a48.45,48.45,0,0,1,12.92-5.93A52.77,52.77,0,0,1,783.73,81a50,50,0,0,1,11.47,1.28,44.57,44.57,0,0,1,10,3.63,38.13,38.13,0,0,1,8.11,5.54,51.07,51.07,0,0,1,6.32,6.87V84.25h25.83v116.5H819.63V186.56a61.21,61.21,0,0,1-6.32,6.87,35.11,35.11,0,0,1-8.11,5.64,42.18,42.18,0,0,1-10,3.58,51.19,51.19,0,0,1-11.47,1.23" transform="translate(-40 -39.96)"></path><path class="cls-1" d="M862.22,84.25h25.94v13.3a32.62,32.62,0,0,1,6.15-7.09,34.88,34.88,0,0,1,7.94-5.14,42.78,42.78,0,0,1,9.5-3.19,51.91,51.91,0,0,1,11-1.13,48.67,48.67,0,0,1,11.68,1.35,39,39,0,0,1,10,4,34.74,34.74,0,0,1,8.16,6.43,37,37,0,0,1,6.15,8.94,42.44,42.44,0,0,1,7.83-9.33,41.29,41.29,0,0,1,9.78-6.49,49,49,0,0,1,11-3.69A55.23,55.23,0,0,1,998.51,81a46.21,46.21,0,0,1,17.23,3.08,34.45,34.45,0,0,1,13.08,9.06,41.41,41.41,0,0,1,8.27,14.65,62.24,62.24,0,0,1,2.91,19.84v73.12h-26.06V134.56a50.77,50.77,0,0,0-1.62-13.64,25.75,25.75,0,0,0-4.86-9.72,20.44,20.44,0,0,0-7.82-5.87,29.34,29.34,0,0,0-21.14,0,20.37,20.37,0,0,0-7.82,5.87,25.77,25.77,0,0,0-4.87,9.72,51.2,51.2,0,0,0-1.61,13.64v66.19H938.14V134.56a51.17,51.17,0,0,0-1.62-13.64,26,26,0,0,0-4.86-9.72,20.45,20.45,0,0,0-7.89-5.87,29.31,29.31,0,0,0-21.13,0,20,20,0,0,0-7.83,5.87,27.87,27.87,0,0,0-4.92,9.72,48.22,48.22,0,0,0-1.73,13.64v66.19H862.22Z" transform="translate(-40 -39.96)"></path></svg> 