<?xml version="1.0" encoding="UTF-8"?>
<svg width="284px" height="61px" viewBox="0 0 284 61" version="1.1" xmlns="http://www.w3.org/2000/svg" xmlns:xlink="http://www.w3.org/1999/xlink">
    <title>logo-cyan</title>
    <g id="Page-1" stroke="none" stroke-width="1" fill="none" fill-rule="evenodd">
        <g id="logo-cyan" transform="translate(0.346000, 0.346627)" fill="#00B4F0" fill-rule="nonzero">
            <g id="Group" transform="translate(119.354000, 1.042373)">
                <path d="M14.811,12.726 C13.724,11.783 12.56,11.332 10.364,11.005 L7.773,10.606 C6.515,10.402 5.368,9.939 4.705,9.367 C4.057,8.808 3.728,7.955 3.728,6.831 C3.728,4.279 5.542,2.693 8.464,2.693 C10.73,2.693 12.28,3.261 13.814,4.655 L13.99,4.815 L15.973,2.833 L15.778,2.657 C13.686,0.77 11.595,0 8.564,0 C3.808,0 0.735,2.72 0.735,6.931 C0.735,8.879 1.367,10.43 2.616,11.54 C3.676,12.462 5.182,13.086 7.096,13.394 L9.855,13.826 C11.588,14.093 12.114,14.283 12.82,14.899 C13.504,15.492 13.865,16.449 13.865,17.667 C13.865,20.258 11.871,21.805 8.531,21.805 C5.796,21.805 4.096,21.122 2.259,19.285 L2.082,19.108 L0,21.191 L0.177,21.368 C2.448,23.639 4.849,24.565 8.464,24.565 C13.583,24.565 16.891,21.831 16.891,17.601 C16.891,15.564 16.171,13.877 14.811,12.726 Z" id="Path"></path>
                <path d="M24.201,2.493 L21.307,2.493 L21.307,7.612 L19.247,7.612 L19.247,9.94 L21.307,9.94 L21.307,19.728 C21.307,22.545 23.049,24.366 25.746,24.366 L27.691,24.366 L27.691,21.805 L26.177,21.805 C24.847,21.805 24.201,21.104 24.201,19.662 L24.201,9.94 L27.691,9.94 L27.691,7.612 L24.201,7.612 L24.201,2.493 L24.201,2.493 Z" id="Path"></path>
                <path d="M37.581,7.313 C35.091,7.313 33.223,7.735 31.6,9.836 L31.459,10.018 L33.467,11.862 L33.631,11.63 C34.558,10.318 35.547,9.875 37.548,9.875 C40.308,9.875 41.486,10.874 41.486,13.215 L41.486,14.526 L36.817,14.526 C33.122,14.526 30.916,16.384 30.916,19.497 C30.916,20.893 31.391,22.169 32.216,22.995 C33.298,24.111 34.688,24.566 37.017,24.566 C39.068,24.566 40.273,24.195 41.486,23.132 L41.486,24.367 L44.3800003,24.367 L44.3800003,13.014 C44.381,9.284 42.029,7.313 37.581,7.313 Z M41.487,16.821 L41.487,18.332 C41.487,19.634 41.241,20.499 40.733,20.978 C39.752,21.928 38.575,22.005 37.25,22.005 C34.825,22.005 33.744,21.221 33.744,19.463 C33.744,17.686 34.858,16.822 37.15,16.822 L41.487,16.822 L41.487,16.821 Z" id="Shape"></path>
                <path d="M59.241,8.986 C57.847,7.529 56.323,7.313 54.87,7.313 C53.203,7.313 51.646,7.875 50.705,8.815 C48.852,10.668 48.638,13.768 48.638,15.939 C48.638,18.11 48.852,21.21 50.705,23.063 C51.646,24.003 53.203,24.565 54.87,24.565 C56.263,24.565 57.852,24.346 59.274,22.836 L59.274,24.367 L62.134,24.367 L62.134,0.2 L59.241,0.2 L59.241,8.986 Z M55.403,9.94 C58.777,9.94 59.241,12.823 59.241,15.939 C59.241,19.055 58.776,21.938 55.403,21.938 C51.991,21.938 51.531,18.905 51.531,15.939 C51.531,12.973 51.99,9.94 55.403,9.94 Z" id="Shape"></path>
                <path d="M70.499,2.493 L67.605,2.493 L67.605,7.612 L65.545,7.612 L65.545,9.94 L67.605,9.94 L67.605,19.728 C67.605,22.545 69.347,24.366 72.044,24.366 L73.989,24.366 L73.989,21.805 L72.475,21.805 C71.145,21.805 70.499,21.104 70.499,19.662 L70.499,9.94 L73.989,9.94 L73.989,7.612 L70.499,7.612 L70.499,2.493 L70.499,2.493 Z" id="Path"></path>
                <polygon id="Path" points="93.279 20.038 89.157 7.512 86.734 7.512 82.644 20.038 79.061 7.512 75.938 7.512 81.281 24.366 83.871 24.366 87.947 12.203 92.054 24.366 94.645 24.366 99.954 7.512 96.831 7.512"></polygon>
                <path d="M108.628,7.313 C104.268,7.313 101.664,10.537 101.664,15.938 C101.664,21.501 104.291,24.565 109.061,24.565 C112.025,24.565 113.616,23.57 115.221,21.965 L115.41,21.777 L113.404,20.018 L113.238,20.184 C111.901,21.52 110.864,21.971 109.127,21.971 C106.252,21.971 104.636,20.145 104.56,16.821 L115.593,16.821 L115.593,15.474 C115.592,10.44 112.924,7.313 108.628,7.313 Z M112.686,14.526 L104.57,14.526 C104.633,13.389 104.711,12.944 105.036,12.148 C105.636,10.725 107.012,9.841 108.627,9.841 C110.241,9.841 111.617,10.724 112.219,12.147 C112.542,12.939 112.623,13.407 112.686,14.526 Z" id="Shape"></path>
                <path d="M127.269,7.313 C125.538,7.313 123.943,7.96 122.932,9.039 L122.932,7.512 L120.039,7.512 L120.039,24.366 L122.932,24.366 L122.932,14.077 C122.932,11.641 124.442,9.94 126.605,9.94 C127.787,9.94 128.381,10.192 129.253,11.063 L129.432,11.241 L131.544,9.09 L131.369,8.915 C130.246,7.792 129.02,7.313 127.269,7.313 Z" id="Path"></path>
                <polygon id="Path" points="147.606 7.512 143.944 7.512 136.929 15.601 136.929 0.2 134.036 0.2 134.036 24.366 136.929 24.366 136.929 19.489 139.836 16.159 144.916 24.366 148.472 24.366 141.811 14.036"></polygon>
                <path d="M164.111,15.473 C164.111,10.44 161.443,7.313 157.147,7.313 C152.786,7.313 150.183,10.537 150.183,15.938 C150.183,21.501 152.809,24.565 157.579,24.565 C160.545,24.565 162.135,23.57 163.74,21.965 L163.929,21.776 L161.923,20.017 L161.757,20.183 C160.42,21.519 159.383,21.97 157.646,21.97 C154.77,21.97 153.155,20.144 153.079,16.82 L164.111,16.82 L164.111,15.473 L164.111,15.473 Z M161.205,14.526 L153.09,14.526 C153.153,13.39 153.231,12.945 153.556,12.148 C154.156,10.725 155.532,9.841 157.148,9.841 C158.763,9.841 160.138,10.724 160.739,12.147 C161.062,12.94 161.142,13.408 161.205,14.526 Z" id="Shape"></path>
            </g>
            <polygon id="Path" points="137.89 58.4023728 137.89 44.6083728 133.37 53.5833728 130.245 53.5833728 125.691 44.6083728 125.691 58.4023728 121.071 58.4023728 121.071 34.7363728 125.624 34.7363728 131.807 47.5333728 137.957 34.7363728 142.51 34.7363728 142.51 58.4023728"></polygon>
            <path d="M156.506,34.1043728 L160.196,34.1043728 L160.196,38.2593728 L156.506,38.2593728 L156.506,34.1043728 Z M149.161,34.1043728 L152.851,34.1043728 L152.851,38.2593728 L149.161,38.2593728 L149.161,34.1043728 Z M157.67,58.4023728 L157.67,56.8073728 C156.54,58.0033728 154.945,58.6013728 153.349,58.6013728 C151.62,58.6013728 150.224,58.0363728 149.261,57.0733728 C147.865,55.6773728 147.499,54.0473728 147.499,52.1533728 L147.499,41.0843728 L151.82,41.0843728 L151.82,51.5543728 C151.82,53.9153728 153.316,54.7123728 154.678,54.7123728 C156.042,54.7123728 157.57,53.9153728 157.57,51.5543728 L157.57,41.0843728 L161.891,41.0843728 L161.891,58.4023728 L157.67,58.4023728 Z" id="Shape"></path>
            <path d="M176.82,58.4023728 L176.82,47.9323728 C176.82,45.5713728 175.324,44.7733728 173.961,44.7733728 C172.599,44.7733728 171.069,45.5713728 171.069,47.9323728 L171.069,58.4023728 L166.748,58.4023728 L166.748,41.0843728 L170.969,41.0843728 L170.969,42.6803728 C172.1,41.4833728 173.696,40.8853728 175.291,40.8853728 C177.019,40.8853728 178.415,41.4503728 179.38,42.4143728 C180.776,43.8103728 181.141,45.4393728 181.141,47.3333728 L181.141,58.4023728 L176.82,58.4023728 Z" id="Path"></path>
            <path d="M191.48,58.6013728 C188.755,58.6013728 186.295,58.3023728 184.101,56.1083728 L186.926,53.2833728 C188.356,54.7123728 190.217,54.9123728 191.547,54.9123728 C193.043,54.9123728 194.604,54.4133728 194.604,53.1173728 C194.604,52.2533728 194.14,51.6543728 192.776,51.5213728 L190.051,51.2553728 C186.926,50.9563728 184.998,49.5943728 184.998,46.4033728 C184.998,42.8133728 188.156,40.8853728 191.68,40.8853728 C194.372,40.8853728 196.633,41.3503728 198.294,42.9133728 L195.635,45.6053728 C194.638,44.7083728 193.109,44.4413728 191.613,44.4413728 C189.885,44.4413728 189.154,45.2393728 189.154,46.1043728 C189.154,46.7353728 189.419,47.4663728 190.949,47.5993728 L193.674,47.8653728 C197.097,48.1983728 198.826,50.0263728 198.826,52.9503728 C198.826,56.7743728 195.569,58.6013728 191.48,58.6013728" id="Path"></path>
            <path d="M207.537,58.4023728 C204.014,58.4023728 202.518,55.9093728 202.518,53.4493728 L202.518,44.8733728 L200.689,44.8733728 L200.689,41.5833728 L202.518,41.5833728 L202.518,36.4643728 L206.839,36.4643728 L206.839,41.5833728 L209.897,41.5833728 L209.897,44.8733728 L206.839,44.8733728 L206.839,53.1843728 C206.839,54.1813728 207.305,54.7453728 208.335,54.7453728 L209.897,54.7453728 L209.897,58.4023728 L207.537,58.4023728 L207.537,58.4023728 Z" id="Path"></path>
            <path d="M223.296,46.2703728 C222.83,45.2393728 221.867,44.4753728 220.404,44.4753728 C218.941,44.4753728 217.978,45.2393728 217.512,46.2703728 C217.246,46.9013728 217.147,47.3673728 217.114,48.1313728 L223.695,48.1313728 C223.662,47.3673728 223.562,46.9013728 223.296,46.2703728 M217.114,51.0903728 C217.114,53.3163728 218.477,54.9463728 220.903,54.9463728 C222.798,54.9463728 223.728,54.4133728 224.825,53.3163728 L227.451,55.8763728 C225.689,57.6383728 223.994,58.6013728 220.87,58.6013728 C216.782,58.6013728 212.859,56.7413728 212.859,49.7263728 C212.859,44.0763728 215.917,40.8853728 220.404,40.8853728 C225.224,40.8853728 227.95,44.4083728 227.95,49.1623728 L227.95,51.0903728 L217.114,51.0903728 Z" id="Shape"></path>
            <path d="M241.348,45.8053728 C240.682,45.1393728 240.118,44.7743728 239.054,44.7743728 C237.725,44.7743728 236.262,45.7723728 236.262,47.9653728 L236.262,58.4023728 L231.941,58.4023728 L231.941,41.0853728 L236.162,41.0853728 L236.162,42.7463728 C236.993,41.7493728 238.655,40.8853728 240.517,40.8853728 C242.212,40.8853728 243.409,41.3173728 244.605,42.5143728 L241.348,45.8053728 Z" id="Path"></path>
            <g id="Group" transform="translate(27.928000, -0.000000)">
                <path d="M72.131,34.1613728 L38.116,10.3443728 C33.863,7.36637284 28.706,6.22037284 23.587,7.12337284 C18.472,8.02537284 14.013,10.8653728 11.035,15.1193728 L5.589,22.8973728 L0,18.9853728 L5.446,11.2073728 C9.471,5.45937284 15.492,1.62337284 22.402,0.405372836 C29.313,-0.811627164 36.283,0.732372836 42.03,4.75737284 L76.045,28.5733728 L72.131,34.1613728 Z" id="Path"></path>
                <path d="M64.557,44.9773728 L30.567,21.1773728 C27.741,19.1963728 23.819,19.8853728 21.833,22.7183728 L16.407,30.4703728 L10.818,26.5583728 L16.246,18.8043728 C20.39,12.8933728 28.565,11.4503728 34.481,15.5893728 L68.471,39.3893728 L64.557,44.9773728 Z" id="Path"></path>
            </g>
            <g id="Group" transform="translate(0.000000, 14.918373)">
                <path d="M3.914,10.816 L37.929,34.633 C42.182,37.611 47.339,38.757 52.458,37.854 C57.573,36.952 62.032,34.112 65.01,29.858 L70.456,22.08 L76.045,25.992 L70.599,33.77 C66.574,39.518 60.553,43.354 53.643,44.572 C46.732,45.789 39.762,44.245 34.015,40.22 L-3.55271368e-15,16.404 L3.914,10.816 Z" id="Path"></path>
                <path d="M11.489,0 L45.479,23.8 C48.305,25.781 52.227,25.092 54.213,22.259 L59.639,14.507 L65.228,18.419 L59.8,26.173 C55.656,32.084 47.481,33.527 41.565,29.388 L7.575,5.588 L11.489,0 Z" id="Path"></path>
            </g>
        </g>
    </g>
</svg>